<svg width="18" height="18" viewBox="0 0 18 18" fill="none" xmlns="http://www.w3.org/2000/svg">
<g clip-path="url(#clip0_4017_2908)" filter="url(#filter0_b_4017_2908)">
<g clip-path="url(#clip1_4017_2908)">
<path fill-rule="evenodd" clip-rule="evenodd" d="M5.28142 7.93991C5.00052 8.22116 4.84274 8.60241 4.84274 8.99991C4.84274 9.39741 5.00052 9.77866 5.28142 10.0599L10.9374 15.7179C11.2188 15.9992 11.6004 16.1571 11.9983 16.157C12.3961 16.1569 12.7777 15.9988 13.0589 15.7174C13.3402 15.436 13.4981 15.0544 13.498 14.6566C13.498 14.2587 13.3398 13.8772 13.0584 13.5959L8.46242 8.99991L13.0584 4.40391C13.3318 4.12114 13.4832 3.7423 13.4799 3.34901C13.4767 2.95571 13.3191 2.57941 13.0411 2.30117C12.7632 2.02292 12.387 1.86499 11.9937 1.86139C11.6004 1.85779 11.2215 2.0088 10.9384 2.28191L5.28042 7.93891L5.28142 7.93991Z" fill="white"/>
</g>
</g>
<defs>
<filter id="filter0_b_4017_2908" x="-8" y="-8" width="34" height="34" filterUnits="userSpaceOnUse" color-interpolation-filters="sRGB">
<feFlood flood-opacity="0" result="BackgroundImageFix"/>
<feGaussianBlur in="BackgroundImageFix" stdDeviation="4"/>
<feComposite in2="SourceAlpha" operator="in" result="effect1_backgroundBlur_4017_2908"/>
<feBlend mode="normal" in="SourceGraphic" in2="effect1_backgroundBlur_4017_2908" result="shape"/>
</filter>
<clipPath id="clip0_4017_2908">
<rect width="18" height="18" fill="white"/>
</clipPath>
<clipPath id="clip1_4017_2908">
<rect width="24" height="24" fill="white" transform="translate(-3 -3)"/>
</clipPath>
</defs>
</svg>
