<svg width="21" height="20" viewBox="0 0 21 20" fill="none" xmlns="http://www.w3.org/2000/svg">
<g clip-path="url(#clip0_4004_4645)">
<path fill-rule="evenodd" clip-rule="evenodd" d="M16.7454 2.61143C16.93 2.50035 17.1505 2.46513 17.3606 2.51314C17.5706 2.56115 17.754 2.68867 17.872 2.86893L18.697 4.12726C18.8046 4.29165 18.8506 4.48874 18.827 4.68375C18.8033 4.87877 18.7116 5.05916 18.5679 5.1931L18.5654 5.19643L18.5537 5.20726L18.5062 5.25143L18.3187 5.4306C17.2812 6.43693 16.2751 7.47521 15.302 8.54393C13.4712 10.5573 11.297 13.1923 9.83369 15.7489C9.42535 16.4623 8.42785 16.6156 7.83619 15.9998L2.43202 10.3848C2.35458 10.3043 2.2941 10.209 2.2542 10.1047C2.2143 10.0004 2.19578 9.88906 2.19974 9.77743C2.20371 9.66579 2.23008 9.5561 2.27728 9.45486C2.32448 9.35362 2.39156 9.2629 2.47452 9.1881L4.10785 7.71476C4.25139 7.58536 4.43544 7.50986 4.6285 7.50119C4.82156 7.49253 5.01164 7.55123 5.16619 7.66726L7.92369 9.73476C12.2312 5.48726 14.6737 3.85726 16.7454 2.61143Z" fill="#FF8B00"/>
</g>
<defs>
<clipPath id="clip0_4004_4645">
<rect width="20" height="20" fill="white" transform="translate(0.5)"/>
</clipPath>
</defs>
</svg>
