<svg width="14" height="18" viewBox="0 0 14 18" fill="none" xmlns="http://www.w3.org/2000/svg">
<g clip-path="url(#clip0_4008_2230)">
<path d="M0.0433872 5.3106C0.220264 4.56019 0.917196 4 1.75 4H12.25C13.0828 4 13.7797 4.56019 13.9566 5.3106L7 9.40441L0.0433872 5.3106ZM0 6.27254V12.2579L5.0778 9.26071L0 6.27254ZM5.91623 9.75411L0.167887 13.1471C0.448529 13.717 1.05147 14.1111 1.75 14.1111H12.25C12.9485 14.1111 13.5515 13.717 13.8321 13.1471L8.08377 9.75411L7 10.3919L5.91623 9.75411ZM8.9222 9.26071L14 12.2579V6.27254L8.9222 9.26071Z" fill="white"/>
</g>
<defs>
<clipPath id="clip0_4008_2230">
<rect width="14" height="14" fill="white" transform="translate(0 2)"/>
</clipPath>
</defs>
</svg>
