<svg width="22" height="23" viewBox="0 0 22 23" fill="none" xmlns="http://www.w3.org/2000/svg">
<g clip-path="url(#clip0_6006_330)">
<g clip-path="url(#clip1_6006_330)">
<path fill-rule="evenodd" clip-rule="evenodd" d="M9.6713 2.34319C10.4291 1.66962 11.571 1.66962 12.3287 2.34319L16.2629 5.84019L16.5136 4.33566C16.6044 3.79089 17.1196 3.42287 17.6644 3.51366C18.2092 3.60446 18.5772 4.11969 18.4864 4.66446L18.0288 7.40994L20.6644 9.75266C21.0772 10.1196 21.1143 10.7517 20.7474 11.1645C20.3805 11.5772 19.7484 11.6144 19.3356 11.2475L18.8715 10.8349L18.0851 18.6991C17.9829 19.7215 17.1225 20.5001 16.095 20.5001H5.905C4.87749 20.5001 4.01716 19.7215 3.91492 18.6991L3.12851 10.8349L2.66437 11.2475C2.25159 11.6144 1.61952 11.5772 1.2526 11.1645C0.885683 10.7517 0.922863 10.1196 1.33565 9.75266L9.6713 2.34319Z" fill="white"/>
</g>
</g>
<defs>
<clipPath id="clip0_6006_330">
<rect width="22" height="22" fill="white" transform="translate(0 0.5)"/>
</clipPath>
<clipPath id="clip1_6006_330">
<rect width="24" height="24" fill="white" transform="translate(-1 -0.5)"/>
</clipPath>
</defs>
</svg>
