<svg width="22" height="23" viewBox="0 0 22 23" fill="none" xmlns="http://www.w3.org/2000/svg">
<g clip-path="url(#clip0_6006_417)">
<g clip-path="url(#clip1_6006_417)">
<path fill-rule="evenodd" clip-rule="evenodd" d="M15 3.26998V19.73C14.9999 19.9478 14.9524 20.163 14.8607 20.3606C14.7691 20.5583 14.6355 20.7335 14.4692 20.8743C14.3029 21.015 14.108 21.1179 13.898 21.1757C13.688 21.2335 13.4679 21.2449 13.253 21.209L4.671 19.779C4.20401 19.7011 3.77979 19.4601 3.47381 19.0988C3.16784 18.7375 2.99994 18.2794 3 17.806V5.19398C2.99994 4.72055 3.16784 4.26244 3.47381 3.90116C3.77979 3.53988 4.20401 3.29886 4.671 3.22098L13.253 1.79098C13.4679 1.7551 13.6881 1.76648 13.8982 1.82434C14.1083 1.88219 14.3033 1.98514 14.4696 2.126C14.6359 2.26686 14.7695 2.44227 14.8611 2.64C14.9527 2.83774 15.0001 3.05206 15 3.26998ZM17 4.49998C17.5046 4.49982 17.9906 4.69039 18.3605 5.03348C18.7305 5.37657 18.9572 5.84683 18.995 6.34998L19 6.49998V16.5C19.0002 17.0046 18.8096 17.4906 18.4665 17.8605C18.1234 18.2305 17.6532 18.4571 17.15 18.495L17 18.5H16V4.49998H17ZM10.5 9.99998C10.1022 9.99998 9.72064 10.158 9.43934 10.4393C9.15804 10.7206 9 11.1022 9 11.5C9 11.8978 9.15804 12.2793 9.43934 12.5606C9.72064 12.8419 10.1022 13 10.5 13C10.8978 13 11.2794 12.8419 11.5607 12.5606C11.842 12.2793 12 11.8978 12 11.5C12 11.1022 11.842 10.7206 11.5607 10.4393C11.2794 10.158 10.8978 9.99998 10.5 9.99998Z" fill="white"/>
</g>
</g>
<defs>
<clipPath id="clip0_6006_417">
<rect width="22" height="22" fill="white" transform="translate(0 0.5)"/>
</clipPath>
<clipPath id="clip1_6006_417">
<rect width="24" height="24" fill="white" transform="translate(-1 -0.5)"/>
</clipPath>
</defs>
</svg>
