<svg width="14" height="19" viewBox="0 0 14 19" fill="none" xmlns="http://www.w3.org/2000/svg">
<g clip-path="url(#clip0_4008_2226)">
<g clip-path="url(#clip1_4008_2226)">
<path d="M0 4.44444C0 11.1025 5.39746 16.5 12.0556 16.5C12.3559 16.5 12.6538 16.489 12.9487 16.4674C13.2871 16.4426 13.4563 16.4302 13.6103 16.3416C13.7379 16.2681 13.8589 16.1379 13.9228 16.0053C14 15.8453 14 15.6585 14 15.2851V13.0939C14 12.7798 14 12.6228 13.9483 12.4882C13.9027 12.3693 13.8285 12.2634 13.7324 12.1799C13.6235 12.0853 13.476 12.0317 13.1808 11.9243L10.6866 11.0174C10.3433 10.8925 10.1716 10.8301 10.0087 10.8407C9.86505 10.85 9.72682 10.899 9.6094 10.9823C9.47622 11.0767 9.38223 11.2333 9.19425 11.5466L8.55556 12.6111C6.49455 11.6777 4.8237 10.0047 3.88889 7.94444L4.95338 7.30575C5.26668 7.11777 5.42334 7.02378 5.51773 6.8906C5.60097 6.77318 5.64999 6.63495 5.65934 6.49132C5.66993 6.32843 5.6075 6.15674 5.48264 5.81337L4.57566 3.31916C4.46834 3.02404 4.41468 2.87647 4.3201 2.76763C4.23657 2.67149 4.1307 2.59734 4.0118 2.55168C3.87719 2.5 3.72017 2.5 3.40614 2.5H1.2149C0.841461 2.5 0.654742 2.5 0.49465 2.5772C0.362057 2.64113 0.231885 2.76212 0.158435 2.88969C0.0697527 3.04372 0.0573619 3.21293 0.0325804 3.55134C0.0109868 3.84622 0 4.14405 0 4.44444Z" fill="white"/>
</g>
</g>
<defs>
<clipPath id="clip0_4008_2226">
<rect width="14" height="14" fill="white" transform="translate(0 2.5)"/>
</clipPath>
<clipPath id="clip1_4008_2226">
<rect width="14" height="14" fill="white" transform="translate(0 2.5)"/>
</clipPath>
</defs>
</svg>
