<svg width="22" height="23" viewBox="0 0 22 23" fill="none" xmlns="http://www.w3.org/2000/svg">
<g clip-path="url(#clip0_6006_54)">
<g clip-path="url(#clip1_6006_54)">
<path d="M9.238 4.32702C9.6321 4.32698 10.0224 4.40458 10.3865 4.5554C10.7506 4.70623 11.0814 4.92731 11.36 5.20602L17.845 11.691C18.1236 11.9696 18.3447 12.3003 18.4955 12.6644C18.6462 13.0284 18.7239 13.4185 18.7239 13.8125C18.7239 14.2065 18.6462 14.5967 18.4955 14.9607C18.3447 15.3247 18.1236 15.6554 17.845 15.934L13.602 20.176C13.0394 20.7384 12.2765 21.0544 11.481 21.0544C10.6855 21.0544 9.92259 20.7384 9.36 20.176L2.874 13.691C2.31172 13.1284 1.99591 12.3655 1.996 11.57V6.82702C1.996 6.16398 2.25939 5.5281 2.72824 5.05926C3.19708 4.59042 3.83296 4.32702 4.496 4.32702H9.238ZM8.652 8.86302C8.51468 8.71565 8.34908 8.59745 8.16508 8.51546C7.98108 8.43348 7.78245 8.38939 7.58105 8.38584C7.37964 8.38229 7.17958 8.41934 6.99281 8.49478C6.80603 8.57022 6.63636 8.68251 6.49393 8.82495C6.35149 8.96738 6.2392 9.13705 6.16376 9.32383C6.08832 9.5106 6.05127 9.71066 6.05482 9.91207C6.05837 10.1135 6.10246 10.3121 6.18444 10.4961C6.26642 10.6801 6.38463 10.8457 6.532 10.983C6.81635 11.248 7.19245 11.3922 7.58105 11.3854C7.96965 11.3785 8.34042 11.2211 8.61525 10.9463C8.89007 10.6714 9.0475 10.3007 9.05435 9.91207C9.06121 9.52347 8.91696 9.14737 8.652 8.86302ZM10.652 1.49902C11.3793 1.49887 12.0818 1.76291 12.629 2.24202L12.774 2.37702L19.966 9.57002C20.1453 9.74998 20.2495 9.99146 20.2572 10.2454C20.265 10.4994 20.1758 10.7467 20.0078 10.9373C19.8397 11.1279 19.6054 11.2473 19.3525 11.2714C19.0996 11.2955 18.847 11.2224 18.646 11.067L18.552 10.984L11.36 3.79002C11.2044 3.6346 11.002 3.53479 10.784 3.50602L10.652 3.50002H6C5.74357 3.50205 5.49616 3.40548 5.30889 3.23028C5.12163 3.05508 5.00884 2.81463 4.99382 2.55863C4.97879 2.30263 5.0627 2.05064 5.22818 1.85474C5.39367 1.65884 5.62809 1.534 5.883 1.50602L6 1.50002L10.652 1.49902Z" fill="white"/>
</g>
</g>
<defs>
<clipPath id="clip0_6006_54">
<rect width="22" height="22" fill="white" transform="translate(0 0.5)"/>
</clipPath>
<clipPath id="clip1_6006_54">
<rect width="24" height="24" fill="white" transform="translate(-1 -0.5)"/>
</clipPath>
</defs>
</svg>
