<svg width="19" height="19" viewBox="0 0 19 19" fill="none" xmlns="http://www.w3.org/2000/svg">
<g clip-path="url(#clip0_4004_4454)">
<path d="M8.64538 2.26868C8.7325 2.11918 8.8573 1.99514 9.00732 1.90893C9.15735 1.82271 9.32735 1.77734 9.50039 1.77734C9.67342 1.77734 9.84342 1.82271 9.99345 1.90893C10.1435 1.99514 10.2683 2.11918 10.3554 2.26868L12.5681 6.0671L16.8653 6.9981C17.0343 7.03483 17.1907 7.11522 17.319 7.23127C17.4473 7.34731 17.5429 7.49496 17.5963 7.65947C17.6497 7.82399 17.6591 7.99964 17.6235 8.16891C17.5879 8.33818 17.5085 8.49515 17.3933 8.62418L14.4641 11.9025L14.9075 16.2764C14.925 16.4487 14.897 16.6225 14.8263 16.7805C14.7556 16.9385 14.6447 17.0752 14.5046 17.177C14.3646 17.2788 14.2003 17.342 14.0281 17.3604C13.856 17.3788 13.682 17.3517 13.5236 17.2818L9.50039 15.5085L5.47714 17.2818C5.31874 17.3517 5.14479 17.3788 4.97265 17.3604C4.80051 17.342 4.63621 17.2788 4.49616 17.177C4.3561 17.0752 4.24519 16.9385 4.1745 16.7805C4.10381 16.6225 4.07581 16.4487 4.0933 16.2764L4.53664 11.9025L1.60747 8.62497C1.49207 8.49595 1.41252 8.33891 1.37679 8.16954C1.34105 8.00017 1.35037 7.82438 1.40381 7.65974C1.45725 7.49509 1.55294 7.34734 1.68134 7.23124C1.80973 7.11514 1.96633 7.03475 2.13551 6.9981L6.43268 6.0671L8.64538 2.26868Z" fill="#FF8B00"/>
</g>
<defs>
<clipPath id="clip0_4004_4454">
<rect width="19" height="19" fill="white"/>
</clipPath>
</defs>
</svg>
