<svg width="30" height="31" viewBox="0 0 30 31" fill="none" xmlns="http://www.w3.org/2000/svg">
<g clip-path="url(#clip0_4017_3628)">
<circle cx="15" cy="15.5" r="15" fill="#0099F9"/>
<g clip-path="url(#clip1_4017_3628)">
<g clip-path="url(#clip2_4017_3628)">
<path fill-rule="evenodd" clip-rule="evenodd" d="M20.833 9.82247C21.0183 9.74447 21.2212 9.71756 21.4204 9.74456C21.6197 9.77156 21.8081 9.85148 21.966 9.97599C22.1239 10.1005 22.2455 10.2651 22.3183 10.4525C22.391 10.64 22.4121 10.8436 22.3795 11.042L20.6785 21.3597C20.5135 22.355 19.4215 22.9257 18.5087 22.43C17.7452 22.0152 16.6112 21.3762 15.5912 20.7095C15.0812 20.3757 13.519 19.307 13.711 18.5465C13.876 17.8962 16.501 15.4527 18.001 14C18.5897 13.4292 18.3212 13.1 17.626 13.625C15.8995 14.9285 13.1275 16.9107 12.211 17.4687C11.4025 17.9607 10.981 18.0447 10.477 17.9607C9.55748 17.8077 8.70473 17.5707 8.00873 17.282C7.06823 16.892 7.11398 15.599 8.00798 15.2225L20.833 9.82247Z" fill="white"/>
</g>
</g>
</g>
<defs>
<clipPath id="clip0_4017_3628">
<rect width="30" height="30" fill="white" transform="translate(0 0.5)"/>
</clipPath>
<clipPath id="clip1_4017_3628">
<rect width="18" height="18" fill="white" transform="translate(6 6.5)"/>
</clipPath>
<clipPath id="clip2_4017_3628">
<rect width="18" height="18" fill="white" transform="translate(6 6.5)"/>
</clipPath>
</defs>
</svg>
