<svg width="22" height="23" viewBox="0 0 22 23" fill="none" xmlns="http://www.w3.org/2000/svg">
<g clip-path="url(#clip0_6006_314)">
<g clip-path="url(#clip1_6006_314)">
<g clip-path="url(#clip2_6006_314)">
<path fill-rule="evenodd" clip-rule="evenodd" d="M11 2.33337C5.93725 2.33337 1.83334 6.43729 1.83334 11.5C1.83334 13.2325 2.31459 14.855 3.1515 16.2374L2.33384 19.0167C2.28689 19.1763 2.2838 19.3456 2.32489 19.5067C2.36599 19.6679 2.44975 19.8151 2.56737 19.9327C2.68498 20.0503 2.83212 20.1341 2.9933 20.1751C3.15448 20.2162 3.32376 20.2132 3.48334 20.1662L6.26267 19.3485C7.69146 20.213 9.33004 20.669 11 20.6667C16.0628 20.6667 20.1667 16.5628 20.1667 11.5C20.1667 6.43729 16.0628 2.33337 11 2.33337ZM8.9265 13.5745C10.7809 15.428 12.551 15.6727 13.1762 15.6956C14.1268 15.7305 15.0526 15.0045 15.4128 14.162C15.4583 14.0572 15.4748 13.9422 15.4606 13.8288C15.4464 13.7154 15.4021 13.608 15.3322 13.5176C14.8298 12.876 14.1506 12.4149 13.4869 11.9565C13.3484 11.8607 13.1781 11.8223 13.0118 11.8493C12.8455 11.8763 12.6961 11.9666 12.595 12.1014L12.045 12.9401C12.0161 12.9852 11.971 13.0175 11.9191 13.0305C11.8671 13.0435 11.8121 13.036 11.7654 13.0098C11.3923 12.7962 10.8488 12.4332 10.4583 12.0427C10.0678 11.6522 9.72675 11.1334 9.53517 10.7841C9.51142 10.7398 9.50455 10.6883 9.51584 10.6392C9.52713 10.5902 9.55582 10.5469 9.59659 10.5174L10.4436 9.88854C10.5645 9.78344 10.6425 9.63756 10.6628 9.47866C10.683 9.31977 10.6442 9.15897 10.5536 9.02687C10.1429 8.42554 9.66442 7.66104 8.9705 7.15412C8.88095 7.08923 8.77604 7.04876 8.66611 7.03671C8.55617 7.02465 8.44499 7.04143 8.3435 7.08537C7.50017 7.44654 6.7705 8.37237 6.80534 9.32479C6.82825 9.94996 7.073 11.72 8.9265 13.5745Z" fill="white"/>
</g>
</g>
</g>
<defs>
<clipPath id="clip0_6006_314">
<rect width="22" height="22" fill="white" transform="translate(0 0.5)"/>
</clipPath>
<clipPath id="clip1_6006_314">
<rect width="22" height="22" fill="white" transform="translate(0 0.5)"/>
</clipPath>
<clipPath id="clip2_6006_314">
<rect width="22" height="22" fill="white" transform="translate(0 0.5)"/>
</clipPath>
</defs>
</svg>
