<svg width="30" height="31" viewBox="0 0 30 31" fill="none" xmlns="http://www.w3.org/2000/svg">
<circle cx="15" cy="15" r="15" fill="#21A038"/>
<g clip-path="url(#clip0_4017_3629)">
<g clip-path="url(#clip1_4017_3629)">
<path fill-rule="evenodd" clip-rule="evenodd" d="M15 7.5C10.8578 7.5 7.5 10.8578 7.5 15C7.5 16.4175 7.89375 17.745 8.5785 18.876L7.9095 21.15C7.87109 21.2806 7.86856 21.4191 7.90218 21.5509C7.93581 21.6828 8.00434 21.8032 8.10057 21.8994C8.1968 21.9957 8.31719 22.0642 8.44906 22.0978C8.58094 22.1314 8.71944 22.1289 8.85 22.0905L11.124 21.4215C12.293 22.1288 13.6337 22.5019 15 22.5C19.1423 22.5 22.5 19.1423 22.5 15C22.5 10.8578 19.1423 7.5 15 7.5ZM13.3035 16.6972C14.8207 18.2137 16.269 18.414 16.7805 18.4327C17.5582 18.4612 18.3157 17.8673 18.6105 17.178C18.6477 17.0923 18.6612 16.9981 18.6496 16.9053C18.638 16.8126 18.6017 16.7247 18.5445 16.6508C18.1335 16.1258 17.5778 15.7485 17.0347 15.3735C16.9214 15.2951 16.7821 15.2637 16.646 15.2858C16.51 15.3079 16.3877 15.3818 16.305 15.492L15.855 16.1783C15.8313 16.2151 15.7945 16.2416 15.7519 16.2522C15.7094 16.2628 15.6645 16.2567 15.6263 16.2353C15.321 16.0605 14.8763 15.7635 14.5568 15.444C14.2373 15.1245 13.9583 14.7 13.8015 14.4142C13.7821 14.3779 13.7764 14.3358 13.7857 14.2957C13.7949 14.2556 13.8184 14.2202 13.8517 14.196L14.5447 13.6815C14.6436 13.5955 14.7075 13.4761 14.7241 13.3461C14.7407 13.2161 14.7089 13.0846 14.6347 12.9765C14.2987 12.4845 13.9073 11.859 13.3395 11.4442C13.2662 11.3912 13.1804 11.358 13.0904 11.3482C13.0005 11.3383 12.9095 11.352 12.8265 11.388C12.1365 11.6835 11.5395 12.441 11.568 13.2203C11.5868 13.7318 11.787 15.18 13.3035 16.6972Z" fill="white"/>
</g>
</g>
<defs>
<clipPath id="clip0_4017_3629">
<rect width="18" height="18" fill="white" transform="translate(6 6)"/>
</clipPath>
<clipPath id="clip1_4017_3629">
<rect width="18" height="18" fill="white" transform="translate(6 6)"/>
</clipPath>
</defs>
</svg>
