<svg width="68" height="68" viewBox="0 0 68 68" fill="none" xmlns="http://www.w3.org/2000/svg">
<g clip-path="url(#clip0_4004_4447)">
<path d="M0.529297 34.0031C0.529297 15.4432 15.5707 0.398438 34.1339 0.398438C52.6904 0.398438 67.7386 15.4432 67.7386 34.0031C67.7386 52.5629 52.6904 67.6077 34.1339 67.6077C15.5707 67.6077 0.529297 52.5629 0.529297 34.0031Z" fill="#FC3F1D"/>
<path d="M38.4372 19.4321H35.3321C29.6395 19.4321 26.6453 22.3153 26.6453 26.5663C26.6453 31.3718 28.7154 33.6233 32.9664 36.51L36.4781 38.8757L26.3866 53.9541H18.8457L27.9022 40.4652C22.6934 36.7317 19.7698 33.1058 19.7698 26.9729C19.7698 19.2842 25.1298 14.0352 35.2952 14.0352H45.3867V53.9172H38.4372V19.4321Z" fill="white"/>
</g>
<defs>
<clipPath id="clip0_4004_4447">
<rect width="68" height="68" fill="white"/>
</clipPath>
</defs>
</svg>
