<svg width="35" height="35" viewBox="0 0 35 35" fill="none" xmlns="http://www.w3.org/2000/svg">
<g clip-path="url(#clip0_4017_2976)">
<path d="M16.7702 4.375C18.2038 4.37511 19.5979 4.84445 20.7397 5.71133C21.8815 6.57821 22.7082 7.79499 23.0935 9.17583L23.1693 9.47479L25.8964 8.79375C26.0958 8.74414 26.3033 8.73719 26.5055 8.77337C26.7077 8.80954 26.9 8.88803 27.0698 9.00368C27.2395 9.11933 27.3829 9.26954 27.4906 9.44447C27.5983 9.61939 27.6678 9.81509 27.6946 10.0188L27.7077 10.2083V12.8479C28.5298 13.6362 29.2036 14.5658 29.6968 15.5925L29.8981 16.0417H30.6243C30.9815 16.0417 31.3263 16.1729 31.5932 16.4102C31.8601 16.6476 32.0307 16.9746 32.0725 17.3294L32.0827 17.5V21.875C32.0827 22.115 32.0235 22.3514 31.9103 22.563C31.7971 22.7747 31.6334 22.9551 31.4337 23.0883L31.2762 23.1788L29.5729 24.0319C28.8756 25.381 27.8655 26.5436 26.6271 27.4225L26.2493 27.6763V29.1667C26.2493 29.5239 26.1182 29.8686 25.8808 30.1355C25.6434 30.4025 25.3164 30.573 24.9616 30.6148L24.791 30.625H20.416C20.0588 30.625 19.7141 30.4938 19.4471 30.2565C19.1802 30.0191 19.0097 29.692 18.9679 29.3373L18.9577 29.1667H17.4993C17.4993 29.5239 17.3682 29.8686 17.1308 30.1355C16.8934 30.4025 16.5664 30.573 16.2116 30.6148L16.041 30.625H11.666C11.3088 30.625 10.9641 30.4938 10.6971 30.2565C10.4302 30.0191 10.2597 29.692 10.2179 29.3373L10.2077 29.1667V27.6763C9.15416 27.0027 8.24411 26.1276 7.52985 25.1013C6.81558 24.0749 6.31117 22.9175 6.0456 21.6956C5.18566 21.4397 4.42512 20.9257 3.86693 20.2233C3.30873 19.5208 2.97984 18.6639 2.92477 17.7683L2.91602 17.5V16.7708C2.91643 16.3991 3.05876 16.0416 3.31392 15.7713C3.56908 15.5011 3.91782 15.3384 4.28888 15.3166C4.65994 15.2948 5.02532 15.4156 5.31035 15.6541C5.59539 15.8927 5.77857 16.2311 5.82247 16.6002L5.83268 16.7708V17.5C5.83268 17.7158 5.87935 17.9215 5.96393 18.1052C6.18652 16.7923 6.68308 15.541 7.42129 14.4326C8.15949 13.3243 9.1228 12.3839 10.2485 11.6725C10.145 10.7545 10.2366 9.82491 10.5171 8.94468C10.7977 8.06445 11.2609 7.25337 11.8765 6.56452C12.4921 5.87566 13.2463 5.32455 14.0896 4.94724C14.9329 4.56994 15.8463 4.37494 16.7702 4.375ZM24.791 12.075L20.7689 13.0813L20.5939 13.1148L20.416 13.125H15.3118C13.8373 13.124 12.4054 13.6197 11.247 14.5321C10.0886 15.4445 9.27121 16.7204 8.92667 18.1541C8.58213 19.5879 8.7305 21.0959 9.34785 22.435C9.9652 23.7741 11.0156 24.8663 12.3296 25.5354C12.5413 25.6437 12.7233 25.802 12.8598 25.9967C12.9963 26.1914 13.0831 26.4166 13.1127 26.6525L13.1243 26.8333V27.7083H14.5827C14.5827 27.3511 14.7139 27.0064 14.9512 26.7395C15.1886 26.4725 15.5156 26.302 15.8704 26.2602L16.041 26.25H20.416C20.7732 26.25 21.118 26.3812 21.3849 26.6185C21.6518 26.8559 21.8223 27.183 21.8641 27.5377L21.8743 27.7083H23.3327V26.8333C23.3328 26.5648 23.4071 26.3015 23.5473 26.0725C23.6876 25.8435 23.8883 25.6576 24.1275 25.5354C25.4657 24.8503 26.5297 23.7287 27.1433 22.3563C27.2527 22.1107 27.4278 21.9003 27.6493 21.7481L27.8229 21.646L29.166 20.9738V18.9583H28.8641C28.5466 18.9582 28.2378 18.8545 27.9846 18.6629C27.7313 18.4713 27.5476 18.2022 27.4612 17.8967C27.0964 16.6138 26.3497 15.4723 25.3204 14.6242C25.0348 14.3882 24.8497 14.0524 24.8027 13.685L24.791 13.4998V12.075ZM23.3327 16.0417C23.7195 16.0417 24.0904 16.1953 24.3639 16.4688C24.6374 16.7423 24.791 17.1132 24.791 17.5C24.791 17.8868 24.6374 18.2577 24.3639 18.5312C24.0904 18.8047 23.7195 18.9583 23.3327 18.9583C22.9459 18.9583 22.575 18.8047 22.3015 18.5312C22.028 18.2577 21.8743 17.8868 21.8743 17.5C21.8743 17.1132 22.028 16.7423 22.3015 16.4688C22.575 16.1953 22.9459 16.0417 23.3327 16.0417ZM16.7702 7.29167C15.8869 7.29166 15.0336 7.61235 14.3689 8.19414C13.7042 8.77593 13.2734 9.57924 13.1564 10.4548C13.8631 10.2907 14.5863 10.208 15.3118 10.2083H20.2366L20.3387 10.1835C20.1658 9.36536 19.7168 8.63149 19.0671 8.10498C18.4174 7.57847 17.6064 7.29132 16.7702 7.29167Z" fill="white"/>
</g>
<defs>
<clipPath id="clip0_4017_2976">
<rect width="35" height="35" fill="white"/>
</clipPath>
</defs>
</svg>
