<svg width="35" height="35" viewBox="0 0 35 35" fill="none" xmlns="http://www.w3.org/2000/svg">
<g clip-path="url(#clip0_4017_2978)">
<path fill-rule="evenodd" clip-rule="evenodd" d="M16.4763 3.19729C17.1363 2.94986 17.8637 2.94986 18.5238 3.19729L28.7321 7.02542C29.2882 7.23386 29.7674 7.60708 30.1056 8.09518C30.4439 8.58329 30.6251 9.16302 30.625 9.75687V17.5779C30.6251 20.0154 29.9463 22.4048 28.6649 24.4782C27.3835 26.5517 25.5499 28.2274 23.3698 29.3175L18.4785 31.7631C18.1747 31.9151 17.8397 31.9942 17.5 31.9942C17.1603 31.9942 16.8253 31.9151 16.5215 31.7631L11.6302 29.3175C9.45006 28.2274 7.61654 26.5517 6.3351 24.4782C5.05367 22.4048 4.37495 20.0154 4.375 17.5779V9.75687C4.37493 9.16302 4.55613 8.58329 4.89439 8.09518C5.23265 7.60708 5.71184 7.23386 6.26792 7.02542L16.4763 3.19729ZM17.5 5.92875L7.29167 9.75687V17.5779C7.292 19.4736 7.82016 21.3317 8.81696 22.9441C9.81376 24.5565 11.2398 25.8595 12.9354 26.7071L17.5 28.9923L22.0646 26.71C23.7606 25.8622 25.187 24.5587 26.1838 22.9457C27.1806 21.3328 27.7085 19.4741 27.7083 17.5779V9.75687L17.5 5.92875Z" fill="white"/>
</g>
<defs>
<clipPath id="clip0_4017_2978">
<rect width="35" height="35" fill="white"/>
</clipPath>
</defs>
</svg>
