<svg width="35" height="35" viewBox="0 0 35 35" fill="none" xmlns="http://www.w3.org/2000/svg">
<g clip-path="url(#clip0_4017_2980)">
<path fill-rule="evenodd" clip-rule="evenodd" d="M24.3483 3.46748C24.6673 3.17198 25.086 3.00781 25.5208 3.00781C25.9556 3.00781 26.3744 3.17198 26.6933 3.46748C27.1017 3.84373 28.0496 4.76832 28.9056 5.98165C29.7354 7.15998 30.625 8.81082 30.625 10.6133C30.625 13.4921 28.455 16.0412 25.5208 16.0412C22.5881 16.0412 20.4167 13.4921 20.4167 10.6133C20.4167 8.81227 21.3063 7.15998 22.1375 5.98165C22.7875 5.07098 23.5283 4.22861 24.3483 3.46748ZM25.5208 6.42498C25.1621 6.81613 24.828 7.22914 24.5204 7.66165C23.8058 8.67519 23.3333 9.7179 23.3333 10.6133C23.3333 12.1183 24.4271 13.1246 25.5208 13.1246C26.6146 13.1246 27.7083 12.1183 27.7083 10.6133C27.7083 9.7179 27.2358 8.67519 26.5213 7.66165C26.2137 7.22914 25.8795 6.81613 25.5208 6.42498ZM6.86583 7.82061C7.18229 7.53408 7.59394 7.37541 8.02083 7.37541C8.44773 7.37541 8.85938 7.53408 9.17583 7.82061C9.47625 8.09186 10.0625 8.65623 10.5846 9.3854C11.0833 10.081 11.6667 11.1223 11.6667 12.3137C11.6667 14.3219 10.0844 16.0412 8.02083 16.0412C5.95729 16.0412 4.375 14.3204 4.375 12.3137C4.375 11.1223 4.95833 10.081 5.45708 9.3854C5.97917 8.65623 6.56542 8.09186 6.86583 7.82061ZM8.02083 10.8306C7.95435 10.9134 7.89016 10.998 7.82833 11.0844C7.45208 11.6079 7.29167 12.0366 7.29167 12.3137C7.29167 12.8125 7.66792 13.1246 8.02083 13.1246C8.37375 13.1246 8.75 12.8125 8.75 12.3137C8.75 12.0366 8.58958 11.6094 8.21333 11.0844C8.15151 10.998 8.08732 10.9134 8.02083 10.8306ZM14.8896 13.651C15.2063 13.3673 15.6165 13.2105 16.0417 13.2105C16.4668 13.2105 16.8771 13.3673 17.1938 13.651C17.7231 14.1235 19.2194 15.5148 20.5931 17.3844C21.9392 19.2131 23.3333 21.72 23.3333 24.3858C23.3333 28.5421 20.16 32.0829 16.0417 32.0829C11.9233 32.0829 8.75 28.5435 8.75 24.3858C8.75 21.72 10.1442 19.2131 11.4902 17.3844C12.4969 16.03 13.6362 14.7793 14.891 13.651H14.8896ZM16.0417 16.575C15.4292 17.1817 14.6096 18.0654 13.8396 19.1125C12.6044 20.7896 11.6667 22.6679 11.6667 24.3858C11.6667 27.1202 13.7156 29.1662 16.0417 29.1662C18.3677 29.1662 20.4167 27.1202 20.4167 24.3858C20.4167 22.6679 19.479 20.791 18.2438 19.1125C17.5749 18.2122 16.8388 17.364 16.0417 16.575Z" fill="white"/>
<path d="M1.35352 32.2373L34.3535 4.2373" stroke="white" stroke-width="3" stroke-linecap="round"/>
</g>
<defs>
<clipPath id="clip0_4017_2980">
<rect width="35" height="35" fill="white"/>
</clipPath>
</defs>
</svg>
