<svg width="35" height="35" viewBox="0 0 35 35" fill="none" xmlns="http://www.w3.org/2000/svg">
<g clip-path="url(#clip0_4017_2979)">
<g clip-path="url(#clip1_4017_2979)">
<path fill-rule="evenodd" clip-rule="evenodd" d="M14.7315 4.81508C15.1755 3.78008 16.3215 2.84108 17.7675 3.12008C19.9785 3.54458 22.326 5.22158 22.491 7.94108L22.5 8.24708V11.9971H26.1075C26.9616 11.997 27.8058 12.1793 28.5838 12.5318C29.3618 12.8842 30.0555 13.3987 30.6187 14.0408C31.1819 14.6829 31.6014 15.4379 31.8494 16.2552C32.0973 17.0725 32.168 17.9333 32.0565 18.7801L32.0115 19.0711L30.6465 26.5711C30.4045 27.9031 29.7191 29.1142 28.7017 30.0074C27.6843 30.9007 26.3947 31.4235 25.0425 31.4911L24.744 31.4971H9C7.85218 31.4971 6.74773 31.0586 5.91261 30.2712C5.07749 29.4837 4.57484 28.4069 4.5075 27.2611L4.5 26.9971V17.9971C4.49994 16.8493 4.93849 15.7448 5.72593 14.9097C6.51336 14.0746 7.59016 13.5719 8.736 13.5046L9 13.4971H11.01L14.7315 4.81508ZM10.5 16.4971H9C8.60218 16.4971 8.22064 16.6551 7.93934 16.9364C7.65804 17.2177 7.5 17.5993 7.5 17.9971V26.9971C7.5 27.3949 7.65804 27.7764 7.93934 28.0577C8.22064 28.339 8.60218 28.4971 9 28.4971H10.5V16.4971ZM17.4375 6.11708L13.6215 15.0226C13.5682 15.1466 13.5318 15.2773 13.5135 15.4111L13.5 15.6121V28.4971H24.744C25.4054 28.4971 26.0483 28.2786 26.5727 27.8755C27.0971 27.4724 27.4735 26.9073 27.6435 26.2681L27.696 26.0341L29.061 18.5341C29.1364 18.1201 29.1239 17.6948 29.0242 17.286C28.9246 16.8771 28.74 16.4938 28.4826 16.1609C28.2251 15.8281 27.9005 15.5531 27.5298 15.3539C27.1591 15.1546 26.7507 15.0356 26.331 15.0046L26.1075 14.9971H22.5C21.7431 14.9973 21.0142 14.7115 20.4592 14.1968C19.9042 13.6822 19.5643 12.9768 19.5075 12.2221L19.5 11.9971V8.24708C19.5 7.41758 18.849 6.57308 17.6925 6.19208L17.4375 6.11708Z" fill="white"/>
</g>
</g>
<defs>
<clipPath id="clip0_4017_2979">
<rect width="35" height="35" fill="white"/>
</clipPath>
<clipPath id="clip1_4017_2979">
<rect width="36" height="36" fill="white"/>
</clipPath>
</defs>
</svg>
