<svg width="35" height="35" viewBox="0 0 35 35" fill="none" xmlns="http://www.w3.org/2000/svg">
<g clip-path="url(#clip0_4017_2981)">
<path fill-rule="evenodd" clip-rule="evenodd" d="M13.5003 3C14.6481 2.99994 15.7525 3.43849 16.5877 4.22593C17.4228 5.01336 17.9254 6.09016 17.9928 7.236L18.0003 7.5V8.352C18.2534 8.22087 18.5386 8.1645 18.8225 8.18947C19.1065 8.21444 19.3774 8.31972 19.6038 8.493L19.7523 8.6235C19.9979 8.86438 20.1532 9.18235 20.1922 9.52413C20.2313 9.8659 20.1517 10.2107 19.9667 10.5008C19.7818 10.7908 19.5028 11.0085 19.1764 11.1173C18.8501 11.2262 18.4963 11.2195 18.1743 11.0985L18.0003 11.022V14.7885C18.0108 14.859 18.0153 14.9295 18.0153 15.0015L18.0108 15.1095L18.0003 15.2145V18.972C18.303 18.8086 18.6527 18.7543 18.9908 18.8181C19.3288 18.8819 19.6346 19.0599 19.857 19.3224C20.0794 19.5849 20.2048 19.9158 20.2122 20.2597C20.2197 20.6037 20.1086 20.9397 19.8978 21.2115L19.7583 21.3675C20.5609 22.5828 20.9924 24.0056 20.9999 25.462C21.0074 26.9185 20.5907 28.3456 19.8007 29.5691C19.0106 30.7927 17.8814 31.7598 16.5509 32.3522C15.2204 32.9447 13.7461 33.1369 12.3082 32.9055C10.8702 32.674 9.53075 32.0289 8.45334 31.0489C7.37593 30.0688 6.60718 28.7963 6.24096 27.3866C5.87474 25.9769 5.9269 24.4911 6.39106 23.1106C6.85522 21.7301 7.7113 20.5146 8.85477 19.6125C8.89405 19.5826 8.92934 19.5478 8.95977 19.509L9.00027 19.434V7.5C9.00027 6.30653 9.47438 5.16193 10.3183 4.31802C11.1622 3.47411 12.3068 3 13.5003 3ZM13.5003 6C13.1329 6.00005 12.7783 6.13493 12.5037 6.37907C12.2292 6.62321 12.0538 6.95962 12.0108 7.3245L12.0003 7.5V19.437C12.0003 20.4495 11.4948 21.276 10.8843 21.822L10.7148 21.966C9.98979 22.5373 9.45803 23.3178 9.19161 24.2016C8.92519 25.0853 8.93698 26.0296 9.2254 26.9065C9.51381 27.7833 10.0649 28.5502 10.8039 29.1033C11.543 29.6563 12.4342 29.9687 13.3568 29.9981C14.2794 30.0275 15.1887 29.7725 15.9614 29.2676C16.7341 28.7628 17.3329 28.0325 17.6766 27.1758C18.0202 26.3191 18.0921 25.3774 17.8825 24.4785C17.6729 23.5796 17.1919 22.7668 16.5048 22.1505L16.2858 21.966C15.6588 21.471 15.1008 20.6865 15.0123 19.7085L15.0003 19.44V7.5C15.0003 7.10218 14.8422 6.72064 14.5609 6.43934C14.2796 6.15804 13.8981 6 13.5003 6ZM24.0003 20.985C24.3679 20.9851 24.7227 21.1202 24.9973 21.3646C25.2719 21.6091 25.4471 21.9459 25.4898 22.311L25.5003 22.5C25.4998 22.8823 25.3535 23.25 25.091 23.5281C24.8285 23.8061 24.4698 23.9734 24.0882 23.9958C23.7065 24.0182 23.3307 23.894 23.0375 23.6486C22.7443 23.4032 22.5559 23.0551 22.5108 22.6755L22.5003 22.485C22.5003 22.0872 22.6583 21.7056 22.9396 21.4243C23.2209 21.143 23.6024 20.985 24.0003 20.985ZM30.3603 19.23C30.633 19.4981 30.793 19.8603 30.8075 20.2425C30.8221 20.6247 30.6901 20.998 30.4386 21.2861C30.1871 21.5742 29.835 21.7554 29.4544 21.7925C29.0737 21.8297 28.6933 21.72 28.3908 21.486L28.2378 21.351C27.9645 21.0681 27.8133 20.6892 27.8168 20.2959C27.8202 19.9026 27.9779 19.5264 28.256 19.2483C28.5342 18.9702 28.9104 18.8124 29.3037 18.809C29.697 18.8056 30.0774 18.9568 30.3603 19.23ZM24.0003 10.5C25.1937 10.5 26.3383 10.9741 27.1823 11.818C28.0262 12.6619 28.5003 13.8065 28.5003 15C28.5003 16.1935 28.0262 17.3381 27.1823 18.182C26.3383 19.0259 25.1937 19.5 24.0003 19.5C22.8068 19.5 21.6622 19.0259 20.8183 18.182C19.9744 17.3381 19.5003 16.1935 19.5003 15C19.5003 13.8065 19.9744 12.6619 20.8183 11.818C21.6622 10.9741 22.8068 10.5 24.0003 10.5ZM24.0003 13.5C23.6024 13.5 23.2209 13.658 22.9396 13.9393C22.6583 14.2206 22.5003 14.6022 22.5003 15C22.5003 15.3978 22.6583 15.7794 22.9396 16.0607C23.2209 16.342 23.6024 16.5 24.0003 16.5C24.3981 16.5 24.7796 16.342 25.0609 16.0607C25.3422 15.7794 25.5003 15.3978 25.5003 15C25.5003 14.6022 25.3422 14.2206 25.0609 13.9393C24.7796 13.658 24.3981 13.5 24.0003 13.5ZM31.5003 13.5C31.8826 13.5004 32.2503 13.6468 32.5283 13.9093C32.8063 14.1717 32.9736 14.5304 32.996 14.9121C33.0184 15.2938 32.8943 15.6696 32.6489 15.9627C32.4035 16.2559 32.0554 16.4443 31.6758 16.4895L31.4853 16.5C31.103 16.4996 30.7352 16.3532 30.4572 16.0907C30.1792 15.8283 30.0119 15.4696 29.9895 15.0879C29.9671 14.7062 30.0913 14.3304 30.3367 14.0373C30.5821 13.7441 30.9301 13.5557 31.3098 13.5105L31.5003 13.5ZM30.3693 8.634C30.6275 8.89229 30.7827 9.23594 30.8056 9.60048C30.8285 9.96502 30.7177 10.3254 30.4938 10.614L30.3588 10.7655C30.0888 11.0345 29.7266 11.1907 29.3457 11.2023C28.9648 11.214 28.5937 11.0802 28.3079 10.8281C28.022 10.5761 27.8428 10.2247 27.8067 9.84529C27.7705 9.4659 27.8802 9.08699 28.1133 8.7855L28.2483 8.6355C28.5296 8.35429 28.911 8.19632 29.3088 8.19632C29.7065 8.19632 30.088 8.35279 30.3693 8.634ZM24.0003 5.985C24.3679 5.98509 24.7227 6.12019 24.9973 6.36463C25.2719 6.60908 25.4471 6.94585 25.4898 7.311L25.5003 7.5C25.4998 7.88232 25.3535 8.25005 25.091 8.52805C24.8285 8.80606 24.4698 8.97335 24.0882 8.99576C23.7065 9.01816 23.3307 8.89399 23.0375 8.6486C22.7443 8.40322 22.5559 8.05514 22.5108 7.6755L22.5003 7.485C22.5003 7.08717 22.6583 6.70564 22.9396 6.42434C23.2209 6.14304 23.6024 5.985 24.0003 5.985Z" fill="white"/>
</g>
<defs>
<clipPath id="clip0_4017_2981">
<rect width="35" height="35" fill="white"/>
</clipPath>
</defs>
</svg>
