<svg width="216" height="59" viewBox="0 0 216 59" fill="none" xmlns="http://www.w3.org/2000/svg">
<path d="M62.727 7.15869V52.6804H56.0936V14.414L50.165 15.4504V9.31455L62.727 7.15869Z" fill="#FF8B00"/>
<path d="M56.1351 45.9641H38.5981L33.5401 37.2163H27.7359L22.6779 45.9641H12.2718L29.8503 15.5334L45.4387 41.4036H53.3159L32.7524 7.15869H26.9482L3.56543 47.6639L6.46754 52.6804H24.6265H26.575L30.638 45.5909L34.7424 52.6804H34.8253H42.4952H59.7835L56.1351 45.9641Z" fill="black"/>
<path d="M95.811 10.272H92.8259L89.0117 18.771L85.2804 10.272H82.2539L80.0566 24.1606H83.166L84.5342 15.0812L88.6801 24.1606H89.4263L93.5722 15.0812L94.9403 24.1606H98.0083L95.811 10.272Z" fill="black"/>
<path d="M106.798 24.4935C108.912 24.4935 110.695 23.7887 112.104 22.4205C113.514 21.0524 114.219 19.3111 114.219 17.2382C114.219 15.8701 113.887 14.6263 113.265 13.5484C112.643 12.429 111.731 11.5583 110.612 10.9365C109.492 10.3146 108.207 9.98291 106.839 9.98291C104.725 9.98291 102.942 10.6877 101.532 12.0558C100.123 13.424 99.418 15.1653 99.418 17.2382C99.418 19.3111 100.123 21.0524 101.532 22.4205C102.9 23.7887 104.683 24.4935 106.798 24.4935ZM103.688 14.0873C104.517 13.2581 105.554 12.8436 106.798 12.8436C108.041 12.8436 109.078 13.2581 109.907 14.0873C110.736 14.9165 111.151 15.9944 111.151 17.2382C111.151 18.0674 110.944 18.8136 110.57 19.5184C110.197 20.1818 109.658 20.7207 108.995 21.0939C108.332 21.467 107.585 21.6743 106.756 21.6743C105.512 21.6743 104.476 21.2597 103.647 20.4305C102.818 19.6013 102.403 18.5234 102.403 17.2796C102.403 15.953 102.818 14.9165 103.688 14.0873Z" fill="black"/>
<path d="M117.827 24.163H126.035V26.6091H128.813V21.3438H127.445V10.2329H118.2C118.075 11.8498 117.951 13.0936 117.868 14.0057C117.785 14.9177 117.702 15.7884 117.619 16.7005C117.536 17.6126 117.412 18.2759 117.371 18.6905C117.288 19.1051 117.205 19.5197 117.08 19.9343C116.956 20.3488 116.832 20.6391 116.666 20.8049C116.541 20.9707 116.376 21.178 116.168 21.3024H115.049V26.5676H117.827V24.163ZM120.231 18.7319C120.438 17.5296 120.646 15.664 120.812 13.0936H124.46V21.3853H119.236C119.692 20.8049 120.024 19.9343 120.231 18.7319Z" fill="black"/>
<path d="M133.954 21.1357C133.623 21.3015 133.167 21.4259 132.503 21.4259H131.633V24.2451H132.172C133.664 24.2451 134.866 23.9134 135.737 23.2501C136.608 22.5867 137.395 21.3844 138.1 19.6846L142.039 10.3149H138.888L136.359 16.6581L133.042 10.3149H129.643L134.825 20.1407C134.576 20.5967 134.286 20.9698 133.954 21.1357Z" fill="black"/>
<path d="M143.862 19.2295C143.697 20.5976 143.075 21.2609 141.997 21.2609H141.209V24.2045H141.997C143.448 24.2045 144.567 23.7899 145.396 22.9193C146.225 22.0486 146.682 20.8049 146.889 19.0636L147.552 13.0521H151.159V24.163H154.144V10.2329H144.899L143.862 19.2295Z" fill="black"/>
<path d="M165.337 15.0836C164.591 14.669 163.72 14.4617 162.725 14.4617H160.32V10.2329H157.294V24.163H162.684C164.135 24.163 165.378 23.707 166.29 22.7949C167.244 21.8828 167.7 20.722 167.7 19.3124C167.7 18.3588 167.493 17.5296 167.037 16.7834C166.664 16.0786 166.083 15.4982 165.337 15.0836ZM164.052 20.8049C163.637 21.178 163.14 21.3853 162.476 21.3853H160.32V17.3224H162.476C162.891 17.3224 163.264 17.4053 163.596 17.5711C163.927 17.7369 164.176 17.9857 164.342 18.2759C164.508 18.5661 164.591 18.9392 164.591 19.3124C164.674 19.9343 164.466 20.4318 164.052 20.8049Z" fill="black"/>
<path d="M178.108 15.6201H172.884V10.272H169.857V24.1606H172.884V18.4393H178.108V24.1606H181.134V10.272H178.108V15.6201Z" fill="black"/>
<path d="M199.209 10.272H196.183V24.2021H199.209V10.272Z" fill="black"/>
<path d="M192.327 15.0836C191.581 14.669 190.71 14.4617 189.715 14.4617H187.311V10.2329H184.284V24.163H189.674C191.125 24.163 192.369 23.707 193.281 22.7949C194.234 21.8828 194.69 20.722 194.69 19.3124C194.69 18.3588 194.483 17.5296 194.027 16.7834C193.695 16.0786 193.073 15.4982 192.327 15.0836ZM191.083 20.8049C190.669 21.178 190.171 21.3853 189.508 21.3853H187.352V17.3224H189.508C189.923 17.3224 190.296 17.4053 190.627 17.5711C190.959 17.7369 191.208 17.9857 191.374 18.2759C191.539 18.5661 191.622 18.9392 191.622 19.3124C191.664 19.9343 191.457 20.4318 191.083 20.8049Z" fill="black"/>
<path d="M205.387 21.3829V18.5223H210.196V15.786H205.387V13.0497H210.735V10.272H202.36V24.1606H210.942V21.3829H205.387Z" fill="black"/>
<path d="M92.3288 34.1118H83.0835C82.9591 35.7287 82.8347 36.9725 82.7518 37.8846C82.6689 38.7967 82.586 39.6673 82.5031 40.5794C82.4201 41.4915 82.2958 42.1548 82.2543 42.5694C82.1714 42.984 82.0885 43.3986 81.9641 43.8132C81.8397 44.2277 81.7153 44.518 81.5495 44.6838C81.4251 44.8496 81.2593 45.0569 81.052 45.1813H79.9326V50.4466H82.7104V48.0005H90.9606V50.4466H93.7384V45.1813H92.3702V34.1118H92.3288ZM89.3437 45.2228H84.1199C84.576 44.6423 84.9077 43.7717 85.115 42.5694C85.3223 41.3671 85.5295 39.5015 85.6954 36.931H89.3437V45.2228Z" fill="black"/>
<path d="M106.299 34.7763C105.18 34.1544 103.895 33.8228 102.527 33.8228C100.412 33.8228 98.6295 34.5276 97.2199 35.8957C95.8103 37.2638 95.1055 39.0051 95.1055 41.078C95.1055 43.151 95.8103 44.8922 97.2199 46.2604C98.6295 47.6285 100.412 48.3333 102.527 48.3333C104.641 48.3333 106.424 47.6285 107.833 46.2604C109.243 44.8922 109.948 43.151 109.948 41.078C109.948 39.7099 109.616 38.4661 108.994 37.3882C108.331 36.2688 107.419 35.3982 106.299 34.7763ZM106.299 43.3583C105.926 44.0216 105.387 44.5606 104.724 44.9337C104.061 45.3068 103.314 45.5141 102.485 45.5141C101.241 45.5141 100.205 45.0995 99.3757 44.2704C98.5465 43.4412 98.132 42.3633 98.132 41.1195C98.132 39.8757 98.5465 38.7978 99.3757 37.9686C100.205 37.1395 101.241 36.7249 102.485 36.7249C103.729 36.7249 104.765 37.1395 105.595 37.9686C106.424 38.7978 106.838 39.8757 106.838 41.1195C106.88 41.9072 106.672 42.6535 106.299 43.3583Z" fill="black"/>
<path d="M124.002 34.1118L120.23 42.6523L116.457 34.1118H113.43L111.274 48.042H114.342L115.711 38.9625L119.856 48.0005H120.603L124.749 38.9625L126.117 48.042H129.185L127.029 34.1118H124.002Z" fill="black"/>
<path d="M135.57 34.1118L130.139 48.042H133.331L134.285 45.3886H139.84L140.794 48.042H144.069L138.43 34.1118H135.57ZM135.197 42.7767L137.021 37.8016L138.845 42.7767H135.197Z" fill="black"/>
</svg>
