<svg width="208" height="46" viewBox="0 0 208 46" fill="none" xmlns="http://www.w3.org/2000/svg">
<path d="M59.1616 0V45.5217H52.5282V7.25528L46.5996 8.29175V2.15585L59.1616 0Z" fill="#FF8B00"/>
<path d="M52.5697 38.8054H35.0326L29.9747 30.0576H24.1704L19.1125 38.8054H8.70633L26.2848 8.37466L41.8733 34.2449H49.7505L29.1869 0H23.3827L0 40.5052L2.90211 45.5217H21.061H23.0096L27.0726 38.4323L31.177 45.5217H31.2599H38.9297H56.218L52.5697 38.8054Z" fill="white"/>
<path d="M92.2465 3.11328H89.2615L85.4473 11.6123L81.716 3.11328H78.6895L76.4922 17.002H79.6016L80.9697 7.92249L85.1156 17.002H85.8619L90.0077 7.92249L91.3759 17.002H94.4438L92.2465 3.11328Z" fill="white"/>
<path d="M103.231 17.3348C105.346 17.3348 107.128 16.63 108.538 15.2618C109.948 13.8937 110.652 12.1524 110.652 10.0795C110.652 8.71136 110.321 7.4676 109.699 6.38967C109.077 5.27028 108.165 4.39965 107.045 3.77777C105.926 3.15589 104.641 2.82422 103.273 2.82422C101.158 2.82422 99.3756 3.52902 97.966 4.89716C96.5564 6.26529 95.8516 8.00656 95.8516 10.0795C95.8516 12.1524 96.5564 13.8937 97.966 15.2618C99.3341 16.63 101.117 17.3348 103.231 17.3348ZM100.122 6.92863C100.951 6.09946 101.987 5.68487 103.231 5.68487C104.475 5.68487 105.511 6.09946 106.341 6.92863C107.17 7.75781 107.584 8.83574 107.584 10.0795C107.584 10.9087 107.377 11.6549 107.004 12.3597C106.631 13.0231 106.092 13.562 105.429 13.9352C104.765 14.3083 104.019 14.5156 103.19 14.5156C101.946 14.5156 100.91 14.101 100.08 13.2718C99.2512 12.4426 98.8366 11.3647 98.8366 10.121C98.8366 8.79428 99.2512 7.75781 100.122 6.92863Z" fill="white"/>
<path d="M114.262 17.0044H122.471V19.4504H125.249V14.1852H123.881V3.07422H114.635C114.511 4.69111 114.386 5.93487 114.304 6.84696C114.221 7.75905 114.138 8.62969 114.055 9.54178C113.972 10.4539 113.848 11.1172 113.806 11.5318C113.723 11.9464 113.64 12.361 113.516 12.7756C113.391 13.1901 113.267 13.4804 113.101 13.6462C112.977 13.812 112.811 14.0193 112.604 14.1437H111.484V19.409H114.262V17.0044ZM116.667 11.5733C116.874 10.371 117.081 8.50531 117.247 5.93487H120.896V14.2266H115.672C116.128 13.6462 116.459 12.7756 116.667 11.5733Z" fill="white"/>
<path d="M130.39 13.977C130.058 14.1428 129.602 14.2672 128.939 14.2672H128.068V17.0864H128.607C130.1 17.0864 131.302 16.7547 132.173 16.0914C133.043 15.428 133.831 14.2257 134.536 12.5259L138.474 3.15625H135.323L132.794 9.49944L129.478 3.15625H126.078L131.26 12.982C131.012 13.438 130.722 13.8111 130.39 13.977Z" fill="white"/>
<path d="M140.298 12.0708C140.132 13.4389 139.51 14.1022 138.432 14.1022H137.645V17.0458H138.432C139.883 17.0458 141.003 16.6312 141.832 15.7606C142.661 14.89 143.117 13.6462 143.324 11.9049L143.988 5.89341H147.595V17.0044H150.58V3.07422H141.334L140.298 12.0708Z" fill="white"/>
<path d="M161.772 7.92489C161.025 7.5103 160.155 7.30301 159.16 7.30301H156.755V3.07422H153.729V17.0044H159.118C160.569 17.0044 161.813 16.5483 162.725 15.6362C163.679 14.7241 164.135 13.5633 164.135 12.1537C164.135 11.2001 163.927 10.371 163.471 9.6247C163.098 8.9199 162.518 8.33948 161.772 7.92489ZM160.486 13.6462C160.072 14.0193 159.574 14.2266 158.911 14.2266H156.755V10.1637H158.911C159.325 10.1637 159.699 10.2466 160.03 10.4124C160.362 10.5782 160.611 10.827 160.777 11.1172C160.942 11.4074 161.025 11.7806 161.025 12.1537C161.108 12.7756 160.901 13.2731 160.486 13.6462Z" fill="white"/>
<path d="M174.543 8.46146H169.319V3.11328H166.293V17.002H169.319V11.2807H174.543V17.002H177.57V3.11328H174.543V8.46146Z" fill="white"/>
<path d="M195.644 3.11328H192.617V17.0434H195.644V3.11328Z" fill="white"/>
<path d="M188.762 7.92489C188.015 7.5103 187.145 7.30301 186.15 7.30301H183.745V3.07422H180.719V17.0044H186.108C187.559 17.0044 188.803 16.5483 189.715 15.6362C190.669 14.7241 191.125 13.5633 191.125 12.1537C191.125 11.2001 190.918 10.371 190.462 9.6247C190.13 8.9199 189.508 8.33948 188.762 7.92489ZM187.518 13.6462C187.103 14.0193 186.606 14.2266 185.943 14.2266H183.787V10.1637H185.943C186.357 10.1637 186.73 10.2466 187.062 10.4124C187.394 10.5782 187.642 10.827 187.808 11.1172C187.974 11.4074 188.057 11.7806 188.057 12.1537C188.098 12.7756 187.891 13.2731 187.518 13.6462Z" fill="white"/>
<path d="M201.821 14.2242V11.3636H206.631V8.62729H201.821V5.89102H207.17V3.11328H198.795V17.002H207.377V14.2242H201.821Z" fill="white"/>
<path d="M88.7633 26.9531H79.518C79.3937 28.57 79.2693 29.8138 79.1864 30.7259C79.1035 31.638 79.0205 32.5086 78.9376 33.4207C78.8547 34.3328 78.7303 34.9961 78.6889 35.4107C78.606 35.8253 78.523 36.2399 78.3987 36.6545C78.2743 37.0691 78.1499 37.3593 77.9841 37.5251C77.8597 37.6909 77.6939 37.8982 77.4866 38.0226H76.3672V43.2879H79.1449V40.8418H87.3952V43.2879H90.1729V38.0226H88.8048V26.9531H88.7633ZM85.7783 38.0641H80.5545C81.0106 37.4836 81.3422 36.613 81.5495 35.4107C81.7568 34.2084 81.9641 32.3428 82.1299 29.7723H85.7783V38.0641Z" fill="white"/>
<path d="M102.733 27.6176C101.614 26.9957 100.328 26.6641 98.9602 26.6641C96.8458 26.6641 95.0631 27.3689 93.6535 28.737C92.2439 30.1051 91.5391 31.8464 91.5391 33.9193C91.5391 35.9923 92.2439 37.7335 93.6535 39.1017C95.0631 40.4698 96.8458 41.1746 98.9602 41.1746C101.075 41.1746 102.857 40.4698 104.267 39.1017C105.676 37.7335 106.381 35.9923 106.381 33.9193C106.381 32.5512 106.05 31.3074 105.428 30.2295C104.764 29.1101 103.852 28.2395 102.733 27.6176ZM102.733 36.1996C102.36 36.8629 101.821 37.4019 101.157 37.775C100.494 38.1481 99.7479 38.3554 98.9187 38.3554C97.675 38.3554 96.6385 37.9408 95.8093 37.1117C94.9801 36.2825 94.5656 35.2046 94.5656 33.9608C94.5656 32.717 94.9801 31.6391 95.8093 30.8099C96.6385 29.9808 97.675 29.5662 98.9187 29.5662C100.162 29.5662 101.199 29.9808 102.028 30.8099C102.857 31.6391 103.272 32.717 103.272 33.9608C103.313 34.7485 103.106 35.4948 102.733 36.1996Z" fill="white"/>
<path d="M120.437 26.9531L116.664 35.4936L112.891 26.9531H109.865L107.709 40.8833H110.777L112.145 31.8038L116.291 40.8418H117.037L121.183 31.8038L122.551 40.8833H125.619L123.463 26.9531H120.437Z" fill="white"/>
<path d="M132.005 26.9531L126.574 40.8833H129.767L130.72 38.2299H136.276L137.229 40.8833H140.504L134.866 26.9531H132.005ZM131.632 35.618L133.456 30.643L135.281 35.618H131.632Z" fill="white"/>
</svg>
