<svg width="235" height="87" viewBox="0 0 235 87" fill="none" xmlns="http://www.w3.org/2000/svg">
  <g clip-path="url(#clip0_6066_870)">
    <path d="M35.196 29.2133C29.5869 13.7026 16.6866 0.00221236 0.192929 0.00216072L-690 0C-717.614 0 -740 22.3857 -740 50V534C-740 561.614 -717.614 584 -690 584H923C950.614 584 973 561.614 973 534V50C973 22.3858 950.614 0 923 0L234.735 0.00177372C218.269 0.00181616 205.377 13.6564 199.764 29.1366C187.553 62.8203 155.33 87 117.5 87C79.6292 87 47.3777 62.8986 35.196 29.2133Z" fill="black"/>
  </g>
  <defs>
    <clipPath id="clip0_6066_870">
      <rect width="235" height="87" fill="white"/>
    </clipPath>
  </defs>
</svg>